<svg xmlns="http://www.w3.org/2000/svg" viewBox="0 0 480 340"><defs><filter id="shadow" x="-70%" y="-70%" width="240%" height="260%"><feDropShadow dx="0" dy="16" stdDeviation="12" flood-color="#433e34" flood-opacity=".22"/></filter><linearGradient id="metal" x1="0" x2="1" y1="0" y2="1"><stop stop-color="#faf2df"/><stop offset=".35" stop-color="#c4a87e"/><stop offset=".65" stop-color="#ecd9b9"/><stop offset="1" stop-color="#8e7150"/></linearGradient><linearGradient id="dark" x1="0" x2="1"><stop stop-color="#232d33"/><stop offset=".48" stop-color="#59666a"/><stop offset="1" stop-color="#1c252a"/></linearGradient><linearGradient id="petal" x1="0" x2="1" y1="0" y2="1"><stop stop-color="#ffeadf"/><stop offset="1" stop-color="#c17869"/></linearGradient></defs><path fill="#dfe7e9" d="M0 0h480v340H0z"/><ellipse cx="240" cy="282" rx="112" ry="16" fill="#c8d4d9"/><g filter="url(#shadow)" transform="rotate(-9 240 174)"><rect x="128" y="120" width="224" height="143" rx="26" fill="url(#dark)"/><path d="m185 120 17-29h65l16 29" fill="#404f56"/><rect x="143" y="138" width="194" height="107" rx="16" fill="#3f4c50"/><circle cx="247" cy="191" r="67" fill="#1b282e"/><circle cx="247" cy="191" r="52" fill="url(#metal)"/><circle cx="247" cy="191" r="42" fill="#253840"/><circle cx="247" cy="191" r="29" fill="#4b7580"/><circle cx="247" cy="191" r="19" fill="#152831"/><ellipse cx="235" cy="178" rx="10" ry="7" fill="#b5d5d2" opacity=".8"/><rect x="148" y="144" width="27" height="12" rx="4" fill="#e8d9bf"/><rect x="302" y="107" width="23" height="13" rx="4" fill="url(#metal)"/></g></svg>