<svg xmlns="http://www.w3.org/2000/svg" viewBox="0 0 480 340"><defs><filter id="shadow" x="-70%" y="-70%" width="240%" height="260%"><feDropShadow dx="0" dy="16" stdDeviation="12" flood-color="#433e34" flood-opacity=".22"/></filter><linearGradient id="metal" x1="0" x2="1" y1="0" y2="1"><stop stop-color="#faf2df"/><stop offset=".35" stop-color="#c4a87e"/><stop offset=".65" stop-color="#ecd9b9"/><stop offset="1" stop-color="#8e7150"/></linearGradient><linearGradient id="dark" x1="0" x2="1"><stop stop-color="#232d33"/><stop offset=".48" stop-color="#59666a"/><stop offset="1" stop-color="#1c252a"/></linearGradient><linearGradient id="petal" x1="0" x2="1" y1="0" y2="1"><stop stop-color="#ffeadf"/><stop offset="1" stop-color="#c17869"/></linearGradient></defs><path fill="#eee2dd" d="M0 0h480v340H0z"/><ellipse cx="240" cy="295" rx="120" ry="15" fill="#ddcac3"/><g filter="url(#shadow)"><path d="M137 282V151a103 103 0 0 1 206 0v131" fill="none" stroke="url(#metal)" stroke-width="17"/><path d="M158 282V154a82 82 0 0 1 164 0v128" fill="none" stroke="#c8aa7c" stroke-width="3"/><path d="M149 126q20 60 1 152M331 126q-20 60-1 152" fill="none" stroke="#f9eee4" stroke-width="27"/><path d="M206 285v-53q34-16 68 0v53" fill="#e2c8b5"/><ellipse cx="240" cy="231" rx="35" ry="10" fill="#fff2e4"/><path d="M240 230v-28" stroke="#7b8b64" stroke-width="3"/><circle cx="240" cy="202" r="12" fill="url(#petal)"/><g fill="#8a9b72"><ellipse cx="166" cy="91" rx="13" ry="26" transform="rotate(38 166 91)"/><ellipse cx="193" cy="67" rx="12" ry="25" transform="rotate(62 193 67)"/></g><g fill="url(#petal)"><circle cx="158" cy="108" r="17"/><circle cx="177" cy="84" r="20"/><circle cx="201" cy="69" r="14"/></g></g></svg>